#N canvas 641 68 799 548 12;
#X obj 92 342 *~;
#X obj 254 122 sel 1 0;
#X obj 259 164 t b b;
#X obj 265 238 list;
#X msg 264 280 1 \$1 \, \$2 \, \$3 \, \$1;
#X obj 292 209 pack 0 0 0;
#X obj 439 277 pack 0 0;
#X obj 254 334 vline~;
#X floatatom 249 90 5 0 0 0 - - -, f 5;
#X floatatom 447 150 5 0 0 0 - - -, f 5;
#X text 463 125 A;
#X floatatom 511 148 5 0 0 0 - - -, f 5;
#X floatatom 570 148 5 0 0 0 - - -, f 5;
#X floatatom 627 147 5 0 0 0 - - -, f 5;
#X text 527 123 D;
#X text 586 123 S;
#X text 643 122 R;
#X obj 280 496 dac~;
#X obj 451 399 osc~ 1000;
#X obj 245 42 tgl 15 0 empty empty empty 17 7 0 10 -262144 -1 -1 0
1;
#X obj 442 1 vsl 15 128 0 10000 0 0 empty empty empty 0 -9 0 10 -262144
-1 -1 2400 1;
#X obj 500 3 vsl 15 128 0 10000 0 0 empty empty empty 0 -9 0 10 -262144
-1 -1 1500 1;
#X obj 559 0 vsl 15 128 0 10000 0 0 empty empty empty 0 -9 0 10 -262144
-1 -1 3400 1;
#X obj 622 1 vsl 15 128 0 10000 0 0 empty empty empty 0 -9 0 10 -262144
-1 -1 3800 1;
#X obj 49 50 receive~ signal;
#X obj 460 442 send~ signal;
#X obj 68 486 send~ output;
#X connect 0 0 17 0;
#X connect 0 0 17 1;
#X connect 0 0 26 0;
#X connect 1 0 2 0;
#X connect 1 1 6 0;
#X connect 2 0 3 0;
#X connect 2 1 5 0;
#X connect 3 0 4 0;
#X connect 4 0 7 0;
#X connect 5 0 3 1;
#X connect 6 0 7 0;
#X connect 7 0 0 1;
#X connect 8 0 1 0;
#X connect 9 0 5 0;
#X connect 11 0 5 2;
#X connect 12 0 5 1;
#X connect 13 0 6 1;
#X connect 18 0 25 0;
#X connect 19 0 8 0;
#X connect 20 0 9 0;
#X connect 21 0 11 0;
#X connect 22 0 12 0;
#X connect 23 0 13 0;
#X connect 24 0 0 0;
