#N canvas 519 86 854 611 12;
#X obj 118 381 receive~ signal;
#X obj 368 450 *~;
#X floatatom 440 357 5 0 0 0 - - -, f 5;
#X floatatom 492 356 5 0 0 0 - - -, f 5;
#X obj 360 500 dac~;
#X text 457 442 exponential attack/decay/sustain/release envelope;
#X floatatom 546 356 5 0 0 0 - - -, f 5;
#X floatatom 601 357 5 0 0 0 - - -, f 5;
#X obj 367 476 vol~;
#X floatatom 411 461 5 0 100 0 - - -, f 5;
#X obj 109 151 osc~;
#X obj 116 204 send~ signal;
#X floatatom 72 64 5 0 0 0 - - -, f 5;
#X obj 384 420 eadsr~;
#X obj 438 266 vsl 20 50 0 1000 0 0 empty empty empty 0 -9 0 10 -320
-1 -1 0 1;
#X obj 489 265 vsl 20 50 0 1000 0 0 empty empty empty 0 -9 0 10 -320
-1 -1 0 1;
#X obj 538 265 vsl 20 50 0 1000 0 0 empty empty empty 0 -9 0 10 -320
-1 -1 0 1;
#X obj 601 267 vsl 20 50 0 1000 0 0 empty empty empty 0 -9 0 10 -320
-1 -1 0 1;
#X obj 322 256 metro;
#X floatatom 352 228 5 0 0 0 - - -, f 5;
#X msg 275 228 stop;
#X msg 243 340 start;
#X msg 288 339 stop;
#X obj 322 293 del;
#X floatatom 376 266 5 0 0 0 - - -, f 5;
#X obj 320 229 tgl 15 0 empty empty empty 0 -6 0 8 -262144 -1 -1 0
1;
#X text 436 232 A;
#X text 486 233 D;
#X text 537 231 S;
#X text 597 231 R;
#X connect 0 0 1 0;
#X connect 1 0 8 0;
#X connect 2 0 13 1;
#X connect 3 0 13 2;
#X connect 6 0 13 3;
#X connect 7 0 13 4;
#X connect 8 0 4 1;
#X connect 8 0 4 0;
#X connect 9 0 8 1;
#X connect 10 0 11 0;
#X connect 12 0 10 0;
#X connect 13 0 1 1;
#X connect 14 0 2 0;
#X connect 15 0 3 0;
#X connect 16 0 6 0;
#X connect 17 0 7 0;
#X connect 18 0 21 0;
#X connect 18 0 23 0;
#X connect 19 0 18 1;
#X connect 20 0 18 0;
#X connect 21 0 13 0;
#X connect 22 0 13 0;
#X connect 23 0 22 0;
#X connect 24 0 23 1;
#X connect 25 0 18 0;
