#N canvas 672 364 1008 611 12;
#X obj 118 381 receive~ signal;
#X obj 368 450 *~;
#X floatatom 440 357 5 0 0 0 - - -;
#X floatatom 492 356 5 0 0 0 - - -;
#X obj 360 500 dac~;
#X text 457 442 exponential attack/decay/sustain/release envelope;
#X floatatom 546 356 5 0 0 0 - - -;
#X floatatom 601 357 5 0 0 0 - - -;
#X obj 367 476 vol~;
#X floatatom 411 461 5 0 100 0 - - -;
#X obj 115 147 osc~;
#X obj 116 204 send~ signal;
#X floatatom 72 64 5 0 0 0 - - -;
#X obj 384 420 eadsr~;
#X obj 440 246 vsl 20 50 0 1 0 0 empty empty empty 0 -9 0 10 -320 -1
-1 613 1;
#X obj 492 245 vsl 20 50 0 1 0 0 empty empty empty 0 -9 0 10 -320 -1
-1 1300 1;
#X obj 546 246 vsl 20 50 0 1 0 0 empty empty empty 0 -9 0 10 -320 -1
-1 2000 1;
#X obj 601 247 vsl 20 50 0 1 0 0 empty empty empty 0 -9 0 10 -320 -1
-1 400 1;
#X floatatom 352 228 5 0 0 0 - - -;
#X msg 275 228 stop;
#X msg 243 340 start;
#X msg 288 339 stop;
#X floatatom 383 290 5 0 0 0 - - -;
#X obj 320 229 tgl 15 0 empty empty empty 0 -6 0 8 -262144 -1 -1 1
1;
#X text 440 222 A;
#X text 490 223 D;
#X text 544 221 S;
#X text 601 221 R;
#X text 404 51 - "sustain" must be in [0:1] interval: it's the gain
of the ADSR after the attack and decay stages are completed., f 60
;
#X text 405 89 - other ADSR params are in ms \, so [0:1000] inerval
is fine. However \, linear representation is not ideal: precision must
be greater for small values than for large ones. The followong trick
can be used: start from a normalized [0:1] interval \, then use e.g
[pow 2] \, then multiply by 1000;
#X obj 440 308 pow 2;
#X obj 440 334 * 1000;
#X obj 492 304 pow 2;
#X obj 492 330 * 1000;
#X obj 601 306 pow 2;
#X obj 601 332 * 1000;
#X obj 546 323 pow 2;
#X obj 322 256 metro 1000;
#X obj 322 293 del 700;
#X msg 165 82 800;
#X connect 0 0 1 0;
#X connect 1 0 8 0;
#X connect 2 0 13 1;
#X connect 3 0 13 2;
#X connect 6 0 13 3;
#X connect 7 0 13 4;
#X connect 8 0 4 1;
#X connect 8 0 4 0;
#X connect 9 0 8 1;
#X connect 10 0 11 0;
#X connect 12 0 10 0;
#X connect 13 0 1 1;
#X connect 14 0 30 0;
#X connect 15 0 32 0;
#X connect 16 0 36 0;
#X connect 17 0 34 0;
#X connect 18 0 37 1;
#X connect 19 0 37 0;
#X connect 20 0 13 0;
#X connect 21 0 13 0;
#X connect 22 0 38 1;
#X connect 23 0 37 0;
#X connect 30 0 31 0;
#X connect 31 0 2 0;
#X connect 32 0 33 0;
#X connect 33 0 3 0;
#X connect 34 0 35 0;
#X connect 35 0 7 0;
#X connect 36 0 6 0;
#X connect 37 0 20 0;
#X connect 37 0 38 0;
#X connect 38 0 21 0;
#X connect 39 0 10 0;
