#N canvas 483 25 986 704 12;
#X obj 51 82 hsl 40 40 0 1 0 0 empty empty empty -2 -8 0 10 -258108
-1 -1 0 1;
#X floatatom 367 164 5 0 0 0 - - -, f 5;
#X obj 19 134 send filter_type;
#X obj 434 15 receive filter_type;
#X obj 446 106 i;
#X obj 450 48 * 2.99;
#X obj 446 139 change;
#X obj 277 426 *~;
#X obj 287 263 == 0;
#X obj 290 331 line~;
#X obj 288 302 pack f 10;
#X obj 525 412 *~;
#X obj 540 380 line~;
#X obj 538 342 pack f 10;
#X obj 759 364 *~;
#X obj 774 332 line~;
#X obj 772 294 pack f 10;
#X obj 537 303 == 1;
#X obj 771 255 == 2;
#X obj 307 538 bob~;
#X obj 310 427 vsl 15 50 0 20000 0 0 empty empty empty 0 -9 0 10 -262144
-1 -1 49 1;
#X text 329 426 cutoff;
#X obj 357 460 vsl 15 50 0 10 0 0 empty empty empty 0 -9 0 10 -262144
-1 -1 49 1;
#X floatatom 373 521 5 0 0 0 - - -, f 5;
#X floatatom 316 487 5 0 0 0 - - -, f 5;
#X obj 76 257 osc~;
#X floatatom 50 222 5 0 0 0 - - -, f 5;
#X obj 549 693 dac~;
#X obj 78 329 send~ freq;
#X obj 172 351 receive~ freq;
#X obj 410 352 receive~ freq;
#X obj 658 309 receive~ freq;
#X obj 868 38 pddp/dsp;
#X obj 796 391 vsl 15 50 200 20000 1 0 empty empty empty 0 -9 0 10
-262144 -1 -1 0 1;
#X text 815 390 cutoff;
#X obj 843 424 vsl 15 50 0.1 10 1 0 empty empty empty 0 -9 0 10 -262144
-1 -1 0 1;
#X floatatom 859 485 5 0 0 0 - - -, f 5;
#X floatatom 802 451 5 0 0 0 - - -, f 5;
#X text 862 423 q 0-10;
#X obj 764 494 vcf~;
#X obj 524 527 svf~;
#X obj 556 417 vsl 15 50 200 20000 1 0 empty empty empty 0 -9 0 10
-262144 -1 -1 0 1;
#X text 575 416 cutoff;
#X obj 603 450 vsl 15 50 0.1 10 1 0 empty empty empty 0 -9 0 10 -262144
-1 -1 0 1;
#X floatatom 619 511 5 0 0 0 - - -, f 5;
#X floatatom 562 477 5 0 0 0 - - -, f 5;
#X text 622 449 q 0-10;
#X obj 155 83 hsl 40 40 200 20000 1 0 empty empty empty -2 -8 0 10
-258108 -1 -1 0 1;
#X obj 318 390 receive cutoff;
#X obj 589 384 receive cutoff;
#X obj 815 362 receive cutoff;
#X obj 151 134 send cutoff;
#X obj 261 82 hsl 40 40 0.1 10 1 0 empty empty empty -2 -8 0 10 -258108
-1 -1 0 1;
#X text 376 459 res 0-10;
#X obj 383 425 receive res;
#X obj 631 419 receive res;
#X obj 870 394 receive res;
#X obj 251 133 send res;
#X obj 414 201 hradio 15 0 0 3 empty empty empty 0 -8 0 10 -262144
-1 -1 0;
#X text 405 226 filter type;
#X connect 0 0 2 0;
#X connect 3 0 5 0;
#X connect 4 0 6 0;
#X connect 5 0 4 0;
#X connect 6 0 1 0;
#X connect 6 0 17 0;
#X connect 6 0 8 0;
#X connect 6 0 18 0;
#X connect 6 0 58 0;
#X connect 7 0 19 0;
#X connect 8 0 10 0;
#X connect 9 0 7 1;
#X connect 10 0 9 0;
#X connect 11 0 40 0;
#X connect 12 0 11 1;
#X connect 13 0 12 0;
#X connect 14 0 39 0;
#X connect 15 0 14 1;
#X connect 16 0 15 0;
#X connect 17 0 13 0;
#X connect 18 0 16 0;
#X connect 19 0 27 0;
#X connect 19 0 27 1;
#X connect 20 0 19 1;
#X connect 20 0 24 0;
#X connect 22 0 19 2;
#X connect 22 0 23 0;
#X connect 25 0 28 0;
#X connect 26 0 25 0;
#X connect 29 0 7 0;
#X connect 30 0 11 0;
#X connect 31 0 14 0;
#X connect 33 0 37 0;
#X connect 33 0 39 1;
#X connect 35 0 36 0;
#X connect 35 0 39 2;
#X connect 39 0 27 0;
#X connect 39 0 27 1;
#X connect 40 1 27 0;
#X connect 40 1 27 1;
#X connect 41 0 45 0;
#X connect 41 0 40 1;
#X connect 43 0 44 0;
#X connect 43 0 40 2;
#X connect 47 0 51 0;
#X connect 48 0 20 0;
#X connect 49 0 41 0;
#X connect 50 0 33 0;
#X connect 52 0 57 0;
#X connect 54 0 22 0;
#X connect 55 0 43 0;
#X connect 56 0 35 0;
