#N canvas 100 148 1427 708 10;
#X declare -path Fraise -stdpath Fraise;
#X obj 22 237 analog/parse;
#X floatatom 22 371 8 0 0 0 - - -;
#X floatatom 40 345 8 0 0 0 - - -;
#X floatatom 59 319 8 0 0 0 - - -;
#X floatatom 78 293 8 0 0 0 - - -;
#X obj 22 207 fruit/receive fruit1;
#X text 114 235 Analog capture on connector K1 \, K2 \, K3 and K5.
;
#X text 109 250 (K4 \, K11 and K12 cannot be analog inputs on Versa1)
;
#X msg 128 527 L\$1;
#X obj 128 504 tgl 15 0 empty empty set_LED 18 7 0 10 -4034 -1 -1 0
1;
#X obj 219 468 tgl 15 0 empty empty empty 17 7 0 10 -262144 -1 -1 0
1;
#X msg 270 443 20;
#X floatatom 270 465 5 2 1000 0 - - -;
#X msg 300 442 100;
#X obj 219 487 metro 100;
#X obj 22 399 spigot;
#X obj 80 384 tgl 15 0 empty empty empty 17 7 0 10 -257985 -1 -1 0
1;
#X text 102 382 <- switch this on \, then touch the pins of connector
K1 to drive the led on., f 30;
#X obj 22 474 > 500;
#X obj 21 16 declare -path Fraise -stdpath Fraise;
#X text 135 292 K5 is programmed for capacitive touch measurement \;
connect a small isolated conductive surface \, and you should see the
value decreasing slightly when the surface is touched.;
#X obj 23 553 fruit/send fruit1;
#X obj 345 372 analog/normalize 3;
#X floatatom 340 501 8 0 0 0 - - -;
#X floatatom 358 475 8 0 0 0 - - -;
#X floatatom 377 449 8 0 0 0 - - -;
#X floatatom 396 423 8 0 0 0 - - -;
#X obj 19 141 fruit/fruit 1 fruit1 10 firmware1;
#X obj 583 142 fruit/fruit 1 fruit2 11 firmware2;
#X obj 578 239 analog/parse;
#X msg 904 242 L\$1;
#X obj 904 219 tgl 15 0 empty empty set_LED 18 7 0 10 -4034 -1 -1 0
1;
#X obj 580 427 FSLP/compute 0 1 2;
#X floatatom 580 450 5 0 0 1 pressure - -;
#X floatatom 685 450 5 0 0 1 position - -;
#X obj 578 264 analog/normalize 3;
#X msg 935 243 EHello world!;
#X obj 685 473 * 80;
#X obj 685 574 mtof;
#X obj 685 595 phasor~;
#X obj 686 625 bob~, f 19;
#X obj 741 530 * 80;
#X obj 741 591 mtof;
#X obj 741 572 +, f 6;
#X obj 797 603 sig~ 3;
#X obj 686 678 *~ 0.1;
#X obj 685 493 + 10;
#X obj 774 551 t b f;
#X obj 686 651 lop~, f 7;
#X obj 774 530 - 30;
#X obj 578 209 fruit/receive fruit2;
#X obj 805 264 fruit/send fruit2;
#X msg 15 524 c 10 i 30000;
#X obj 216 203 print other;
#X floatatom 253 556 8 0 0 0 - - -;
#X floatatom 463 444 5 0 0 0 - - -;
#X obj 475 476 s master_vol;
#X obj 345 542 s attack;
#X obj 374 569 s decay;
#X obj 416 544 s sustain;
#X obj 450 565 s release;
#X obj 432 505 s waveform_1;
#X obj 458 526 s waveform_2;
#X obj 345 393 route 0 1 2 3 4 5 8;
#X floatatom 486 423 5 0 0 0 - - -;
#X obj 22 262 route 0 1 2 3 4 5 8;
#X obj 21 38 pied/pied 3 41424;
#X floatatom 610 349 5 0 0 0 - - -;
#X floatatom 652 351 5 0 0 0 - - -;
#X floatatom 701 349 5 0 0 0 - - -;
#X floatatom 745 352 5 0 0 0 - - -;
#X floatatom 786 350 5 0 0 0 - - -;
#X obj 607 376 s filt_res;
#X obj 700 378 s mast_vol_1;
#X obj 746 402 s mast_vol_2;
#X obj 786 376 s filt_type;
#X obj 652 400 s cutoff;
#X obj 561 497 s reverb_drywet;
#X obj 761 491 s reverb_roomsize;
#X obj 609 322 route 6 7 8 9 10, f 38;
#X obj 708 239 route s;
#X obj 708 260 route 0;
#X floatatom 708 290 5 0 0 0 - - -;
#X obj 979 192 tgl 15 0 empty empty set_LED 18 7 0 10 -4034 -1 -1 0
1;
#X msg 979 215 O\$1;
#X obj 870 304 tgl 15 0 empty empty empty 17 7 0 10 -262144 -1 -1 0
1;
#X obj 752 288 select 1;
#X obj 681 816 dac~;
#X floatatom 870 324 5 0 0 0 - - -;
#X obj 685 749 *~;
#X obj 813 708 hsl 40 40 0 1 0 0 empty master_vol empty -2 -8 0 10
-258049 -1 -1 670 1;
#X text 811 680 master;
#X obj 686 781 *~;
#X connect 0 0 22 0;
#X connect 0 0 65 0;
#X connect 0 1 53 0;
#X connect 1 0 15 0;
#X connect 5 0 0 0;
#X connect 8 0 21 1;
#X connect 9 0 8 0;
#X connect 10 0 14 0;
#X connect 11 0 12 0;
#X connect 12 0 14 1;
#X connect 13 0 12 0;
#X connect 14 0 9 0;
#X connect 15 0 18 0;
#X connect 16 0 15 1;
#X connect 18 0 9 0;
#X connect 22 0 63 0;
#X connect 29 0 35 0;
#X connect 30 0 51 1;
#X connect 31 0 30 0;
#X connect 32 0 33 0;
#X connect 32 1 34 0;
#X connect 33 0 41 0;
#X connect 33 0 77 0;
#X connect 34 0 37 0;
#X connect 34 0 78 0;
#X connect 35 0 32 0;
#X connect 35 0 79 0;
#X connect 36 0 51 1;
#X connect 37 0 46 0;
#X connect 38 0 39 0;
#X connect 39 0 40 0;
#X connect 40 0 48 0;
#X connect 41 0 43 0;
#X connect 42 0 40 1;
#X connect 42 0 48 1;
#X connect 43 0 42 0;
#X connect 44 0 40 2;
#X connect 45 0 89 0;
#X connect 46 0 38 0;
#X connect 46 0 49 0;
#X connect 47 0 43 0;
#X connect 47 1 43 1;
#X connect 48 0 45 0;
#X connect 49 0 47 0;
#X connect 50 0 29 0;
#X connect 50 0 80 0;
#X connect 52 0 21 0;
#X connect 63 0 23 0;
#X connect 63 0 57 0;
#X connect 63 1 24 0;
#X connect 63 1 58 0;
#X connect 63 2 25 0;
#X connect 63 2 59 0;
#X connect 63 3 26 0;
#X connect 63 3 60 0;
#X connect 63 4 55 0;
#X connect 63 4 61 0;
#X connect 63 5 62 0;
#X connect 63 5 64 0;
#X connect 63 6 56 0;
#X connect 65 0 1 0;
#X connect 65 1 2 0;
#X connect 65 2 3 0;
#X connect 65 3 4 0;
#X connect 65 4 54 0;
#X connect 67 0 72 0;
#X connect 68 0 76 0;
#X connect 69 0 73 0;
#X connect 70 0 74 0;
#X connect 71 0 75 0;
#X connect 79 0 67 0;
#X connect 79 1 68 0;
#X connect 79 2 69 0;
#X connect 79 3 70 0;
#X connect 79 4 71 0;
#X connect 80 0 81 0;
#X connect 81 0 82 0;
#X connect 81 0 86 0;
#X connect 83 0 84 0;
#X connect 84 0 51 1;
#X connect 85 0 88 0;
#X connect 86 0 85 0;
#X connect 86 0 83 0;
#X connect 88 0 92 1;
#X connect 89 0 92 0;
#X connect 90 0 89 1;
#X connect 92 0 87 0;
#X connect 92 0 87 1;
