#N canvas -11 -11 1920 956 12;
#X obj 46 134 hsl 250 15 0 1 0 0 empty waveform_1 empty -2 -8 0 10
-4034 -1 -1 19867 1;
#X floatatom 43 163 10 0 0 0 Pos - -;
#X obj 959 123 hsl 250 15 0 1 0 0 empty waveform_2 empty -2 -8 0 10
-4034 -1 -1 15581 1;
#X floatatom 956 152 10 0 0 0 Pos - -;
#X obj 41 199 send pos_osc1;
#X obj 956 188 send pos_osc2;
#X obj 653 1077 dac~;
#X obj 335 520 notein 1;
#X obj 335 582 poly 10, f 10;
#X obj 335 549 pack f f;
#X obj 335 608 pack f f f;
#X obj 349 647 clone -s 1 synthAvox 10, f 74;
#X msg 501 563 all 0 0;
#X msg 516 363 all env A \$1;
#X msg 619 363 all env D \$1;
#X floatatom 658 299 5 0 0 0 - - -;
#X floatatom 710 298 5 0 0 0 - - -;
#X floatatom 764 298 5 0 0 0 - - -;
#X floatatom 819 299 5 0 0 0 - - -;
#X obj 658 188 vsl 20 50 0.01 1 1 0 empty attack empty 0 -9 0 10 -320
-1 -1 3368 1;
#X obj 710 187 vsl 20 50 0.01 1 1 0 empty decay empty 0 -9 0 10 -320
-1 -1 1423 1;
#X obj 764 188 vsl 20 50 0.01 1 0 0 empty sustain empty 0 -9 0 10 -320
-1 -1 2434 1;
#X obj 819 189 vsl 20 50 0.01 1 1 0 empty release empty 0 -9 0 10 -320
-1 -1 2861 1;
#X text 658 164 A;
#X text 708 165 D;
#X text 762 163 S;
#X text 819 163 R;
#X obj 658 250 pow 2;
#X obj 658 276 * 1000;
#X obj 710 246 pow 2;
#X obj 710 272 * 1000;
#X obj 819 248 pow 2;
#X obj 764 265 pow 2;
#X msg 719 363 all env S \$1;
#X msg 819 363 all env R \$1;
#X obj 819 274 * 10000;
#X obj 908 481 hsl 40 40 0 1 0 0 empty filt_type empty -2 -8 0 10 -258108
-1 -1 5 1;
#X obj 995 487 hsl 40 40 0 1 0 0 empty cutoff empty -2 -8 0 10 -258108
-1 -1 3894 1;
#X obj 1101 480 hsl 40 40 0.1 5 1 0 empty filt_res empty -2 -8 0 10
-258108 -1 -1 0 1;
#X obj 662 995 *~;
#X obj 702 922 hsl 40 40 0 1 0 0 empty master_vol empty -2 -8 0 10
-258049 -1 -1 2784 1;
#X text 700 894 master;
#X obj 662 525 hsl 40 40 0 1 0 0 empty mast_vol_1 empty -2 -8 0 10
-258049 -1 -1 2457 1;
#X text 651 504 master osc1;
#X obj 789 526 hsl 40 40 0 1 0 0 empty mast_vol_2 empty -2 -8 0 10
-258049 -1 -1 3894 1;
#X text 774 502 master osc2;
#X msg 853 755 roomsize \$1;
#X msg 927 895 wet \$1;
#X msg 936 955 dry \$1;
#X obj 1040 922 expr 1-$f1;
#X obj 937 704 hsl 128 15 0 1 0 0 empty reverb_roomsize empty -2 -8
0 10 -3264 -1 -1 11840 1;
#X text 853 706 roomsize;
#X floatatom 958 746 5 0 0 0 - - -;
#X obj 1037 848 hsl 128 15 0 1 0 0 empty reverb_drywet empty -2 -8
0 10 -3264 -1 -1 0 1;
#X text 1060 808 wet/dry;
#X floatatom 1077 887 5 0 0 0 - - -;
#X obj 603 847 freeverb~;
#X obj 1039 1065 *~;
#X text 885 455 filter type;
#X text 996 457 cutoff;
#X text 1092 450 res;
#X msg 848 544 all filt T \$1;
#X msg 977 583 all filt C \$1;
#X msg 1087 550 all filt R \$1;
#X msg 630 593 all mast L \$1;
#X msg 744 595 all mast R \$1;
#X obj 211 596 print;
#X floatatom 663 570 5 0 0 0 - - -;
#X floatatom 786 571 5 0 0 0 - - -;
#X obj 580 92 bng 15 250 50 0 empty empty empty 17 7 0 10 -262144 -1
-1;
#X obj 125 882 interface_fraise;
#X obj 992 532 * 130;
#X obj 992 556 mtof;
#X obj 1314 516 r button_state;
#X floatatom 1314 543 5 0 0 0 - - -;
#X obj 729 1046 env~;
#X floatatom 729 1070 5 0 0 0 - - -;
#X obj 602 873 hip~ 10;
#X connect 0 0 1 0;
#X connect 1 0 4 0;
#X connect 2 0 3 0;
#X connect 3 0 5 0;
#X connect 7 0 9 0;
#X connect 7 0 66 0;
#X connect 7 1 9 1;
#X connect 7 1 66 0;
#X connect 8 0 10 0;
#X connect 8 1 10 1;
#X connect 8 2 10 2;
#X connect 9 0 8 0;
#X connect 10 0 11 0;
#X connect 11 0 56 0;
#X connect 12 0 11 0;
#X connect 13 0 11 1;
#X connect 14 0 11 1;
#X connect 15 0 13 0;
#X connect 16 0 14 0;
#X connect 17 0 33 0;
#X connect 18 0 34 0;
#X connect 19 0 27 0;
#X connect 20 0 29 0;
#X connect 21 0 32 0;
#X connect 22 0 31 0;
#X connect 27 0 28 0;
#X connect 28 0 15 0;
#X connect 29 0 30 0;
#X connect 30 0 16 0;
#X connect 31 0 35 0;
#X connect 32 0 17 0;
#X connect 33 0 11 1;
#X connect 34 0 11 1;
#X connect 35 0 18 0;
#X connect 36 0 61 0;
#X connect 37 0 71 0;
#X connect 38 0 63 0;
#X connect 39 0 6 0;
#X connect 39 0 6 1;
#X connect 39 0 75 0;
#X connect 40 0 39 1;
#X connect 42 0 64 0;
#X connect 42 0 67 0;
#X connect 44 0 65 0;
#X connect 44 0 68 0;
#X connect 46 0 56 0;
#X connect 47 0 56 0;
#X connect 48 0 56 0;
#X connect 49 0 48 0;
#X connect 50 0 52 0;
#X connect 50 0 46 0;
#X connect 53 0 55 0;
#X connect 53 0 47 0;
#X connect 53 0 49 0;
#X connect 56 0 77 0;
#X connect 61 0 11 3;
#X connect 62 0 11 3;
#X connect 63 0 11 3;
#X connect 64 0 11 2;
#X connect 65 0 11 2;
#X connect 69 0 19 0;
#X connect 69 0 20 0;
#X connect 69 0 21 0;
#X connect 69 0 22 0;
#X connect 69 0 2 0;
#X connect 69 0 0 0;
#X connect 71 0 72 0;
#X connect 72 0 62 0;
#X connect 73 0 74 0;
#X connect 75 0 76 0;
#X connect 77 0 39 0;
