#N canvas -11 -11 1920 956 12;
#X obj 44 336 *~;
#X obj 70 236 == 0;
#X obj 70 260 pack f 10;
#X obj 70 284 line~;
#X obj 242 247 pack f 10;
#X obj 242 271 line~;
#X obj 385 337 *~;
#X obj 403 269 pack f 10;
#X obj 403 293 line~;
#X obj 579 358 *~;
#X obj 596 269 pack f 10;
#X obj 596 293 line~;
#X obj 242 223 == 1;
#X obj 403 245 == 2;
#X obj 596 245 == 3;
#X obj 385 56 * 5.99;
#X obj 385 83 i, f 4;
#X obj 391 136 change;
#X floatatom 385 107 5 0 0 0 - - -;
#X obj 178 316 min~;
#X obj 200 256 *~ -1;
#X obj 200 282 +~ 1;
#X text 79 314 sine wave;
#X obj 214 394 *~;
#X obj 177 228 phasor~;
#X text 246 312 triangle;
#X obj 178 343 *~ 4;
#X obj 178 369 -~ 1;
#X obj 344 247 phasor~;
#X obj 344 273 *~ 2;
#X obj 344 299 -~ 1;
#X text 380 360 sawtooth;
#X obj 533 243 phasor~;
#X obj 533 300 *~ 2;
#X obj 532 328 -~ 1;
#X text 612 318 square;
#X obj 35 237 osc~;
#X floatatom 550 81 5 0 0 0 - - -;
#X obj 481 271 expr~ $v1 > 0.5;
#X obj 794 355 *~;
#X obj 811 266 pack f 10;
#X obj 811 290 line~;
#X obj 738 240 phasor~;
#X obj 738 297 *~ 2;
#X obj 737 325 -~ 1;
#X obj 811 242 == 4;
#X text 827 315 wide pulse;
#X obj 1024 352 *~;
#X obj 1041 263 pack f 10;
#X obj 1041 287 line~;
#X obj 968 237 phasor~;
#X obj 968 294 *~ 2;
#X obj 967 322 -~ 1;
#X text 1057 312 narrow pulse;
#X obj 1041 239 == 5;
#X obj 686 268 expr~ $v1 > 0.75;
#X obj 916 265 expr~ $v1 > 0.9;
#X obj 385 30 receive pos_osc1;
#X obj 882 35 inlet;
#X obj 567 30 f;
#X obj 882 61 unpack f f;
#X obj 882 87 mtof;
#X obj 456 577 *~, f 26;
#X obj 686 545 *~, f 41;
#X obj 687 456 sel 0 1, f 21;
#X obj 687 430 != 0;
#X msg 687 482 stop;
#X msg 759 485 start;
#X obj 946 444 sel 0;
#X obj 955 483 / 127;
#X obj 687 520 creb/eadsr~ 1 100 0.3 50, f 32;
#X obj 1185 64 inlet;
#X obj 1185 90 route env;
#X obj 812 486 route A D S R;
#X obj 1203 348 *~;
#X obj 1229 248 == 0;
#X obj 1229 272 pack f 10;
#X obj 1229 296 line~;
#X obj 1401 259 pack f 10;
#X obj 1401 283 line~;
#X obj 1544 349 *~;
#X obj 1562 281 pack f 10;
#X obj 1562 305 line~;
#X obj 1738 370 *~;
#X obj 1755 281 pack f 10;
#X obj 1755 305 line~;
#X obj 1401 235 == 1;
#X obj 1562 257 == 2;
#X obj 1755 257 == 3;
#X obj 1544 68 * 5.99;
#X obj 1544 95 i, f 4;
#X obj 1550 148 change;
#X floatatom 1544 119 5 0 0 0 - - -;
#X obj 1337 328 min~;
#X obj 1359 268 *~ -1;
#X obj 1359 294 +~ 1;
#X text 1238 326 sine wave;
#X obj 1373 406 *~;
#X obj 1336 240 phasor~;
#X text 1405 324 triangle;
#X obj 1337 355 *~ 4;
#X obj 1337 381 -~ 1;
#X obj 1503 259 phasor~;
#X obj 1503 285 *~ 2;
#X obj 1503 311 -~ 1;
#X text 1539 372 sawtooth;
#X obj 1692 255 phasor~;
#X obj 1692 312 *~ 2;
#X obj 1691 340 -~ 1;
#X text 1771 330 square;
#X obj 1194 249 osc~;
#X floatatom 1709 93 5 0 0 0 - - -;
#X obj 1640 283 expr~ $v1 > 0.5;
#X obj 1953 367 *~;
#X obj 1970 278 pack f 10;
#X obj 1970 302 line~;
#X obj 1897 252 phasor~;
#X obj 1897 309 *~ 2;
#X obj 1896 337 -~ 1;
#X obj 1970 254 == 4;
#X text 1986 327 wide pulse;
#X obj 2183 364 *~;
#X obj 2200 275 pack f 10;
#X obj 2200 299 line~;
#X obj 2127 249 phasor~;
#X obj 2127 306 *~ 2;
#X obj 2126 334 -~ 1;
#X text 2216 324 narrow pulse;
#X obj 2200 251 == 5;
#X obj 1845 280 expr~ $v1 > 0.75;
#X obj 2075 277 expr~ $v1 > 0.9;
#X obj 1726 42 f;
#X obj 1543 578 *~, f 26;
#X obj 1845 557 *~, f 41;
#X obj 1846 468 sel 0 1, f 21;
#X obj 1846 442 != 0;
#X msg 1846 494 stop;
#X msg 1918 497 start;
#X obj 2074 460 sel 0;
#X obj 2114 495 / 127;
#X obj 1846 532 creb/eadsr~ 1 100 0.3 50, f 32;
#X obj 1971 498 route A D S R;
#X obj 1544 42 receive pos_osc2;
#X obj 1296 42 inlet;
#X obj 997 609 *~;
#X obj 1251 598 *~;
#X floatatom 2291 545 5 0 0 0 - - -;
#X obj 2370 487 i;
#X obj 2367 463 * 2.99;
#X obj 2370 520 change;
#X obj 2201 807 *~;
#X obj 2211 644 == 0;
#X obj 2214 712 line~;
#X obj 2212 683 pack f 10;
#X obj 2449 793 *~;
#X obj 2464 761 line~;
#X obj 2462 723 pack f 10;
#X obj 2683 745 *~;
#X obj 2698 713 line~;
#X obj 2696 675 pack f 10;
#X obj 2461 684 == 1;
#X obj 2695 636 == 2;
#X obj 2233 952 bob~;
#X obj 2234 808 vsl 15 50 0 20000 0 0 empty empty empty 0 -9 0 10 -262144
-1 -1 49 1;
#X text 2253 807 cutoff;
#X obj 2281 841 vsl 15 50 0 10 0 0 empty empty empty 0 -9 0 10 -262144
-1 -1 49 1;
#X floatatom 2297 902 5 0 0 0 - - -;
#X floatatom 2240 868 5 0 0 0 - - -;
#X obj 2720 772 vsl 15 50 200 20000 1 0 empty empty empty 0 -9 0 10
-262144 -1 -1 0 1;
#X text 2739 771 cutoff;
#X obj 2767 805 vsl 15 50 0.1 10 1 0 empty empty empty 0 -9 0 10 -262144
-1 -1 0 1;
#X floatatom 2783 866 5 0 0 0 - - -;
#X floatatom 2726 832 5 0 0 0 - - -;
#X text 2786 804 q 0-10;
#X obj 2688 914 vcf~;
#X obj 2448 908 svf~;
#X obj 2480 798 vsl 15 50 200 20000 1 0 empty empty empty 0 -9 0 10
-262144 -1 -1 0 1;
#X text 2499 797 cutoff;
#X obj 2527 831 vsl 15 50 0.1 10 1 0 empty empty empty 0 -9 0 10 -262144
-1 -1 0 1;
#X floatatom 2543 892 5 0 0 0 - - -;
#X floatatom 2486 858 5 0 0 0 - - -;
#X text 2546 830 q 0-10;
#X text 2300 840 res 0-10;
#X obj 2338 582 hradio 15 0 0 3 empty empty empty 0 -8 0 10 -262144
-1 -1 0;
#X text 2329 607 filter type;
#X obj 2367 327 inlet;
#X text 2418 322 filter type;
#X obj 2367 351 route filt;
#X obj 1296 66 route mast;
#X obj 1086 473 route L R;
#X floatatom 1083 518 5 0 0 0 - - -;
#X floatatom 1124 521 5 0 0 0 - - -;
#X obj 2372 376 route T C R;
#X obj 2440 1035 outlet~;
#X msg 593 758 0.25;
#X obj 637 649 b;
#X obj 1063 631 +~, f 26;
#X msg 813 753 0.5, f 8;
#X connect 0 0 62 0;
#X connect 1 0 2 0;
#X connect 2 0 3 0;
#X connect 3 0 0 1;
#X connect 4 0 5 0;
#X connect 5 0 23 1;
#X connect 6 0 62 0;
#X connect 7 0 8 0;
#X connect 8 0 6 1;
#X connect 9 0 62 0;
#X connect 10 0 11 0;
#X connect 11 0 9 1;
#X connect 12 0 4 0;
#X connect 13 0 7 0;
#X connect 14 0 10 0;
#X connect 15 0 16 0;
#X connect 16 0 18 0;
#X connect 17 0 1 0;
#X connect 17 0 12 0;
#X connect 17 0 13 0;
#X connect 17 0 14 0;
#X connect 17 0 45 0;
#X connect 17 0 54 0;
#X connect 18 0 17 0;
#X connect 19 0 26 0;
#X connect 20 0 21 0;
#X connect 21 0 19 1;
#X connect 23 0 62 0;
#X connect 24 0 20 0;
#X connect 24 0 19 0;
#X connect 26 0 27 0;
#X connect 27 0 23 0;
#X connect 28 0 29 0;
#X connect 29 0 30 0;
#X connect 30 0 6 0;
#X connect 32 0 38 0;
#X connect 33 0 34 0;
#X connect 34 0 9 0;
#X connect 36 0 0 0;
#X connect 38 0 33 0;
#X connect 39 0 62 0;
#X connect 40 0 41 0;
#X connect 41 0 39 1;
#X connect 42 0 55 0;
#X connect 43 0 44 0;
#X connect 44 0 39 0;
#X connect 45 0 40 0;
#X connect 47 0 62 0;
#X connect 48 0 49 0;
#X connect 49 0 47 1;
#X connect 50 0 56 0;
#X connect 51 0 52 0;
#X connect 52 0 47 0;
#X connect 54 0 48 0;
#X connect 55 0 43 0;
#X connect 56 0 51 0;
#X connect 57 0 15 0;
#X connect 58 0 60 0;
#X connect 59 0 24 0;
#X connect 59 0 37 0;
#X connect 59 0 36 0;
#X connect 59 0 28 0;
#X connect 59 0 32 0;
#X connect 59 0 42 0;
#X connect 59 0 50 0;
#X connect 60 0 61 0;
#X connect 60 1 65 0;
#X connect 60 1 68 0;
#X connect 60 1 138 0;
#X connect 60 1 135 0;
#X connect 61 0 59 0;
#X connect 61 0 131 0;
#X connect 62 0 144 0;
#X connect 63 0 62 1;
#X connect 64 0 66 0;
#X connect 64 1 67 0;
#X connect 64 1 195 0;
#X connect 65 0 64 0;
#X connect 66 0 70 0;
#X connect 67 0 70 0;
#X connect 68 1 69 0;
#X connect 69 0 63 1;
#X connect 70 0 63 0;
#X connect 71 0 72 0;
#X connect 72 0 73 0;
#X connect 72 0 141 0;
#X connect 73 0 70 1;
#X connect 73 1 70 2;
#X connect 73 2 70 3;
#X connect 73 3 70 4;
#X connect 74 0 132 0;
#X connect 75 0 76 0;
#X connect 76 0 77 0;
#X connect 77 0 74 1;
#X connect 78 0 79 0;
#X connect 79 0 97 1;
#X connect 80 0 132 0;
#X connect 81 0 82 0;
#X connect 82 0 80 1;
#X connect 83 0 132 0;
#X connect 84 0 85 0;
#X connect 85 0 83 1;
#X connect 86 0 78 0;
#X connect 87 0 81 0;
#X connect 88 0 84 0;
#X connect 89 0 90 0;
#X connect 90 0 92 0;
#X connect 91 0 75 0;
#X connect 91 0 86 0;
#X connect 91 0 87 0;
#X connect 91 0 88 0;
#X connect 91 0 119 0;
#X connect 91 0 128 0;
#X connect 92 0 91 0;
#X connect 93 0 100 0;
#X connect 94 0 95 0;
#X connect 95 0 93 1;
#X connect 97 0 132 0;
#X connect 98 0 94 0;
#X connect 98 0 93 0;
#X connect 100 0 101 0;
#X connect 101 0 97 0;
#X connect 102 0 103 0;
#X connect 103 0 104 0;
#X connect 104 0 80 0;
#X connect 106 0 112 0;
#X connect 107 0 108 0;
#X connect 108 0 83 0;
#X connect 110 0 74 0;
#X connect 112 0 107 0;
#X connect 113 0 132 0;
#X connect 114 0 115 0;
#X connect 115 0 113 1;
#X connect 116 0 129 0;
#X connect 117 0 118 0;
#X connect 118 0 113 0;
#X connect 119 0 114 0;
#X connect 121 0 132 0;
#X connect 122 0 123 0;
#X connect 123 0 121 1;
#X connect 124 0 130 0;
#X connect 125 0 126 0;
#X connect 126 0 121 0;
#X connect 128 0 122 0;
#X connect 129 0 117 0;
#X connect 130 0 125 0;
#X connect 131 0 98 0;
#X connect 131 0 111 0;
#X connect 131 0 110 0;
#X connect 131 0 102 0;
#X connect 131 0 106 0;
#X connect 131 0 116 0;
#X connect 131 0 124 0;
#X connect 132 0 145 0;
#X connect 133 0 132 1;
#X connect 134 0 136 0;
#X connect 134 1 137 0;
#X connect 135 0 134 0;
#X connect 136 0 140 0;
#X connect 137 0 140 0;
#X connect 138 1 139 0;
#X connect 139 0 133 1;
#X connect 140 0 133 0;
#X connect 141 0 140 1;
#X connect 141 1 140 2;
#X connect 141 2 140 3;
#X connect 141 3 140 4;
#X connect 142 0 89 0;
#X connect 143 0 188 0;
#X connect 144 0 196 0;
#X connect 145 0 196 1;
#X connect 147 0 149 0;
#X connect 148 0 147 0;
#X connect 149 0 146 0;
#X connect 149 0 160 0;
#X connect 149 0 151 0;
#X connect 149 0 161 0;
#X connect 149 0 183 0;
#X connect 150 0 162 0;
#X connect 151 0 153 0;
#X connect 152 0 150 1;
#X connect 153 0 152 0;
#X connect 154 0 175 0;
#X connect 155 0 154 1;
#X connect 156 0 155 0;
#X connect 157 0 174 0;
#X connect 158 0 157 1;
#X connect 159 0 158 0;
#X connect 160 0 156 0;
#X connect 161 0 159 0;
#X connect 162 0 193 0;
#X connect 163 0 162 1;
#X connect 163 0 167 0;
#X connect 165 0 162 2;
#X connect 165 0 166 0;
#X connect 168 0 172 0;
#X connect 168 0 174 1;
#X connect 170 0 171 0;
#X connect 170 0 174 2;
#X connect 176 0 180 0;
#X connect 176 0 175 1;
#X connect 178 0 179 0;
#X connect 178 0 175 2;
#X connect 185 0 187 0;
#X connect 187 0 192 0;
#X connect 188 0 189 0;
#X connect 189 0 190 0;
#X connect 189 0 144 1;
#X connect 189 1 191 0;
#X connect 189 1 145 1;
#X connect 192 0 148 0;
#X connect 192 1 163 0;
#X connect 192 1 176 0;
#X connect 192 1 168 0;
#X connect 192 2 165 0;
#X connect 192 2 178 0;
#X connect 192 2 170 0;
#X connect 194 0 36 1;
#X connect 194 0 110 1;
#X connect 195 0 194 0;
#X connect 195 0 197 0;
#X connect 196 0 150 0;
#X connect 196 0 154 0;
#X connect 196 0 157 0;
#X connect 197 0 98 1;
#X connect 197 0 124 1;
#X connect 197 0 116 1;
#X connect 197 0 106 1;
#X connect 197 0 102 1;
#X connect 197 0 50 1;
#X connect 197 0 42 1;
#X connect 197 0 32 1;
#X connect 197 0 28 1;
#X connect 197 0 24 1;
