#N canvas 468 57 1350 807 12;
#X obj 44 336 *~;
#X obj 70 236 == 0;
#X obj 70 260 pack f 10;
#X obj 70 284 line~;
#X obj 242 247 pack f 10;
#X obj 242 271 line~;
#X obj 385 337 *~;
#X obj 403 269 pack f 10;
#X obj 403 293 line~;
#X obj 579 358 *~;
#X obj 596 269 pack f 10;
#X obj 596 293 line~;
#X obj 242 223 == 1;
#X obj 403 245 == 2;
#X obj 596 245 == 3;
#X obj 385 56 * 5.99;
#X obj 385 83 i, f 4;
#X obj 391 136 change;
#X floatatom 385 107 5 0 0 0 - - -;
#X obj 178 316 min~;
#X obj 200 256 *~ -1;
#X obj 200 282 +~ 1;
#X text 79 314 sine wave;
#X obj 214 394 *~;
#X obj 177 228 phasor~;
#X text 246 312 triangle;
#X obj 178 343 *~ 4;
#X obj 178 369 -~ 1;
#X obj 344 247 phasor~;
#X obj 344 273 *~ 2;
#X obj 344 299 -~ 1;
#X text 380 360 sawtooth;
#X obj 533 243 phasor~;
#X obj 533 300 *~ 2;
#X obj 532 328 -~ 1;
#X text 612 318 square;
#X obj 35 237 osc~;
#X floatatom 550 81 5 0 0 0 - - -;
#X obj 481 271 expr~ $v1 > 0.5;
#X obj 794 355 *~;
#X obj 811 266 pack f 10;
#X obj 811 290 line~;
#X obj 738 240 phasor~;
#X obj 738 297 *~ 2;
#X obj 737 325 -~ 1;
#X obj 811 242 == 4;
#X text 827 315 wide pulse;
#X obj 1024 352 *~;
#X obj 1041 263 pack f 10;
#X obj 1041 287 line~;
#X obj 968 237 phasor~;
#X obj 968 294 *~ 2;
#X obj 967 322 -~ 1;
#X text 1057 312 narrow pulse;
#X obj 1041 239 == 5;
#X obj 686 268 expr~ $v1 > 0.75;
#X obj 916 265 expr~ $v1 > 0.9;
#X obj 385 30 receive pos_osc1;
#X obj 882 35 inlet;
#X obj 567 30 f;
#X obj 882 61 unpack f f;
#X obj 882 87 mtof;
#X obj 456 577 *~, f 26;
#X obj 686 545 *~, f 41;
#X obj 687 456 sel 0 1, f 21;
#X obj 687 430 != 0;
#X msg 687 482 stop;
#X msg 759 485 start;
#X obj 946 444 sel 0;
#X obj 955 483 / 127;
#X obj 637 653 line~;
#X obj 687 520 creb/eadsr~ 1 100 0.3 50, f 32;
#X obj 1165 721 outlet~;
#X obj 1185 64 inlet;
#X obj 1185 90 route env;
#X obj 812 486 route A D S R;
#X obj 1203 348 *~;
#X obj 1229 248 == 0;
#X obj 1229 272 pack f 10;
#X obj 1229 296 line~;
#X obj 1401 259 pack f 10;
#X obj 1401 283 line~;
#X obj 1544 349 *~;
#X obj 1562 281 pack f 10;
#X obj 1562 305 line~;
#X obj 1738 370 *~;
#X obj 1755 281 pack f 10;
#X obj 1755 305 line~;
#X obj 1401 235 == 1;
#X obj 1562 257 == 2;
#X obj 1755 257 == 3;
#X obj 1544 68 * 5.99;
#X obj 1544 95 i, f 4;
#X obj 1550 148 change;
#X floatatom 1544 119 5 0 0 0 - - -;
#X obj 1337 328 min~;
#X obj 1359 268 *~ -1;
#X obj 1359 294 +~ 1;
#X text 1238 326 sine wave;
#X obj 1373 406 *~;
#X obj 1336 240 phasor~;
#X text 1405 324 triangle;
#X obj 1337 355 *~ 4;
#X obj 1337 381 -~ 1;
#X obj 1503 259 phasor~;
#X obj 1503 285 *~ 2;
#X obj 1503 311 -~ 1;
#X text 1539 372 sawtooth;
#X obj 1692 255 phasor~;
#X obj 1692 312 *~ 2;
#X obj 1691 340 -~ 1;
#X text 1771 330 square;
#X obj 1194 249 osc~;
#X floatatom 1709 93 5 0 0 0 - - -;
#X obj 1640 283 expr~ $v1 > 0.5;
#X obj 1953 367 *~;
#X obj 1970 278 pack f 10;
#X obj 1970 302 line~;
#X obj 1897 252 phasor~;
#X obj 1897 309 *~ 2;
#X obj 1896 337 -~ 1;
#X obj 1970 254 == 4;
#X text 1986 327 wide pulse;
#X obj 2183 364 *~;
#X obj 2200 275 pack f 10;
#X obj 2200 299 line~;
#X obj 2127 249 phasor~;
#X obj 2127 306 *~ 2;
#X obj 2126 334 -~ 1;
#X text 2216 324 narrow pulse;
#X obj 2200 251 == 5;
#X obj 1845 280 expr~ $v1 > 0.75;
#X obj 2075 277 expr~ $v1 > 0.9;
#X obj 1726 42 f;
#X obj 1543 578 *~, f 26;
#X obj 1845 557 *~, f 41;
#X obj 1846 468 sel 0 1, f 21;
#X obj 1846 442 != 0;
#X msg 1846 494 stop;
#X msg 1918 497 start;
#X obj 2074 460 sel 0;
#X obj 2114 495 / 127;
#X obj 1846 532 creb/eadsr~ 1 100 0.3 50, f 32;
#X obj 1971 498 route A D S R;
#X obj 1063 631 *~, f 26;
#X obj 1544 42 receive pos_osc2;
#X connect 0 0 62 0;
#X connect 1 0 2 0;
#X connect 2 0 3 0;
#X connect 3 0 0 1;
#X connect 4 0 5 0;
#X connect 5 0 23 1;
#X connect 6 0 62 0;
#X connect 7 0 8 0;
#X connect 8 0 6 1;
#X connect 9 0 62 0;
#X connect 10 0 11 0;
#X connect 11 0 9 1;
#X connect 12 0 4 0;
#X connect 13 0 7 0;
#X connect 14 0 10 0;
#X connect 15 0 16 0;
#X connect 16 0 18 0;
#X connect 17 0 1 0;
#X connect 17 0 12 0;
#X connect 17 0 13 0;
#X connect 17 0 14 0;
#X connect 17 0 45 0;
#X connect 17 0 54 0;
#X connect 18 0 17 0;
#X connect 19 0 26 0;
#X connect 20 0 21 0;
#X connect 21 0 19 1;
#X connect 23 0 62 0;
#X connect 24 0 20 0;
#X connect 24 0 19 0;
#X connect 26 0 27 0;
#X connect 27 0 23 0;
#X connect 28 0 29 0;
#X connect 29 0 30 0;
#X connect 30 0 6 0;
#X connect 32 0 38 0;
#X connect 33 0 34 0;
#X connect 34 0 9 0;
#X connect 36 0 0 0;
#X connect 38 0 33 0;
#X connect 39 0 62 0;
#X connect 40 0 41 0;
#X connect 41 0 39 1;
#X connect 42 0 55 0;
#X connect 43 0 44 0;
#X connect 44 0 39 0;
#X connect 45 0 40 0;
#X connect 47 0 62 0;
#X connect 48 0 49 0;
#X connect 49 0 47 1;
#X connect 50 0 56 0;
#X connect 51 0 52 0;
#X connect 52 0 47 0;
#X connect 54 0 48 0;
#X connect 55 0 43 0;
#X connect 56 0 51 0;
#X connect 57 0 15 0;
#X connect 58 0 60 0;
#X connect 59 0 24 0;
#X connect 59 0 37 0;
#X connect 59 0 36 0;
#X connect 59 0 28 0;
#X connect 59 0 32 0;
#X connect 59 0 42 0;
#X connect 59 0 50 0;
#X connect 60 0 61 0;
#X connect 60 1 65 0;
#X connect 60 1 68 0;
#X connect 60 1 140 0;
#X connect 60 1 137 0;
#X connect 61 0 59 0;
#X connect 61 0 133 0;
#X connect 62 0 144 0;
#X connect 63 0 62 1;
#X connect 64 0 66 0;
#X connect 64 1 67 0;
#X connect 65 0 64 0;
#X connect 66 0 71 0;
#X connect 67 0 71 0;
#X connect 68 1 69 0;
#X connect 69 0 63 1;
#X connect 71 0 63 0;
#X connect 73 0 74 0;
#X connect 74 0 75 0;
#X connect 74 0 143 0;
#X connect 75 0 71 1;
#X connect 75 1 71 2;
#X connect 75 2 71 3;
#X connect 75 3 71 4;
#X connect 76 0 134 0;
#X connect 77 0 78 0;
#X connect 78 0 79 0;
#X connect 79 0 76 1;
#X connect 80 0 81 0;
#X connect 81 0 99 1;
#X connect 82 0 134 0;
#X connect 83 0 84 0;
#X connect 84 0 82 1;
#X connect 85 0 134 0;
#X connect 86 0 87 0;
#X connect 87 0 85 1;
#X connect 88 0 80 0;
#X connect 89 0 83 0;
#X connect 90 0 86 0;
#X connect 91 0 92 0;
#X connect 92 0 94 0;
#X connect 93 0 77 0;
#X connect 93 0 88 0;
#X connect 93 0 89 0;
#X connect 93 0 90 0;
#X connect 93 0 121 0;
#X connect 93 0 130 0;
#X connect 94 0 93 0;
#X connect 95 0 102 0;
#X connect 96 0 97 0;
#X connect 97 0 95 1;
#X connect 99 0 134 0;
#X connect 100 0 96 0;
#X connect 100 0 95 0;
#X connect 102 0 103 0;
#X connect 103 0 99 0;
#X connect 104 0 105 0;
#X connect 105 0 106 0;
#X connect 106 0 82 0;
#X connect 108 0 114 0;
#X connect 109 0 110 0;
#X connect 110 0 85 0;
#X connect 112 0 76 0;
#X connect 114 0 109 0;
#X connect 115 0 134 0;
#X connect 116 0 117 0;
#X connect 117 0 115 1;
#X connect 118 0 131 0;
#X connect 119 0 120 0;
#X connect 120 0 115 0;
#X connect 121 0 116 0;
#X connect 123 0 134 0;
#X connect 124 0 125 0;
#X connect 125 0 123 1;
#X connect 126 0 132 0;
#X connect 127 0 128 0;
#X connect 128 0 123 0;
#X connect 130 0 124 0;
#X connect 131 0 119 0;
#X connect 132 0 127 0;
#X connect 133 0 100 0;
#X connect 133 0 113 0;
#X connect 133 0 112 0;
#X connect 133 0 104 0;
#X connect 133 0 108 0;
#X connect 133 0 118 0;
#X connect 133 0 126 0;
#X connect 134 0 144 1;
#X connect 135 0 134 1;
#X connect 136 0 138 0;
#X connect 136 1 139 0;
#X connect 137 0 136 0;
#X connect 138 0 142 0;
#X connect 139 0 142 0;
#X connect 140 1 141 0;
#X connect 141 0 135 1;
#X connect 142 0 135 0;
#X connect 143 0 142 1;
#X connect 143 1 142 2;
#X connect 143 2 142 3;
#X connect 143 3 142 4;
#X connect 144 0 72 0;
#X connect 145 0 91 0;
