#N canvas -11 -11 1920 956 12;
#X obj 28 112 hsl 128 15 20 10000 1 0 empty empty empty -2 -8 0 10
-262144 -1 -1 4100 1;
#X obj 25 166 mtof;
#X obj 161 630 dac~;
#X obj 295 589 metro 100;
#X obj 295 565 tgl 15 0 empty empty empty 17 7 0 10 -262144 -1 -1 1
1;
#X obj 272 626 tabwrite~ array1;
#N canvas 0 50 450 250 (subpatch) 0;
#X array array1 100 float 5;
#A 0 1 1 1 1 1 1 1 1 1 1 1 1 1 1 1 1 1 1 1 1 1 1 1 1 1 1 1 1 1 1 1
1 1 1 1 1 1 1 1 1 1 1 1 1 1 1 1 1 1 1 1 1 1 1 1 1 1 1 1 1 1 1 1 1 1
1 1 1 1 1 1 1 1 1 1 1 1 1 1 1 1 1 1 1 1 1 1 1 1 1 1 1 1 1 1 1 1 1 1
1;
#X coords 0 1 99 -1 200 140 1;
#X restore 883 540 graph;
#X obj 29 21 hsl 128 15 0 1 0 0 empty empty empty -2 -8 0 10 -262144
-1 -1 3400 1;
#X obj 26 78 send osc_pos;
#X obj 447 35 receive osc_pos;
#X obj 402 291 *~;
#X obj 421 190 == 0;
#X obj 421 214 pack f 10;
#X obj 421 238 line~;
#X obj 25 190 send freq;
#X obj 594 285 *~;
#X obj 612 213 pack f 10;
#X obj 612 237 line~;
#X obj 594 258 receive freq;
#X obj 744 284 *~;
#X obj 762 216 pack f 10;
#X obj 762 240 line~;
#X obj 744 261 receive freq;
#X obj 838 284 *~;
#X obj 856 216 pack f 10;
#X obj 856 240 line~;
#X obj 838 261 receive freq;
#X obj 933 284 *~;
#X obj 951 216 pack f 10;
#X obj 951 240 line~;
#X obj 933 261 receive freq;
#X obj 612 189 == 1;
#X obj 762 192 == 2;
#X obj 856 192 == 3;
#X obj 951 192 == 4;
#X obj 447 61 * 5.99;
#X obj 447 88 i, f 4;
#X obj 447 134 change;
#X floatatom 447 112 5 0 0 0 - - -;
#X obj 1026 284 *~;
#X obj 1044 216 pack f 10;
#X obj 1044 240 line~;
#X obj 1026 261 receive freq;
#X obj 1044 192 == 5;
#X obj 1246 380 phasor~;
#X msg 45 406 bang;
#X obj 45 432 pi;
#X obj 45 458 * 2;
#X obj 45 488 value twoPi;
#X floatatom 25 132 5 0 0 0 - - -;
#X obj 403 259 receive freq;
#X obj 1246 344 receive freq;
#X obj 1247 411 expr~ cos($v1 * twoPi);
#X obj 594 363 min~;
#X obj 624 312 *~ -1;
#X obj 624 338 +~ 1;
#X obj 195 176 receive freq;
#X obj 194 208 phasor~;
#X obj 193 245 *~;
#X obj 193 271 +~;
#X obj 193 297 wrap~;
#X obj 436 287 phasor~;
#X obj 432 318 expr~ cos($v1 * twoPi);
#X obj 402 317 +~;
#X connect 0 0 49 0;
#X connect 1 0 14 0;
#X connect 3 0 5 0;
#X connect 4 0 3 0;
#X connect 7 0 8 0;
#X connect 9 0 35 0;
#X connect 10 0 63 0;
#X connect 11 0 12 0;
#X connect 12 0 13 0;
#X connect 13 0 10 1;
#X connect 15 0 54 0;
#X connect 15 0 53 0;
#X connect 16 0 17 0;
#X connect 17 0 15 1;
#X connect 18 0 15 0;
#X connect 20 0 21 0;
#X connect 21 0 19 1;
#X connect 22 0 19 0;
#X connect 24 0 25 0;
#X connect 25 0 23 1;
#X connect 26 0 23 0;
#X connect 28 0 29 0;
#X connect 29 0 27 1;
#X connect 30 0 27 0;
#X connect 31 0 16 0;
#X connect 32 0 20 0;
#X connect 33 0 24 0;
#X connect 34 0 28 0;
#X connect 35 0 36 0;
#X connect 36 0 38 0;
#X connect 38 0 37 0;
#X connect 40 0 41 0;
#X connect 41 0 39 1;
#X connect 42 0 39 0;
#X connect 43 0 40 0;
#X connect 44 0 52 0;
#X connect 45 0 46 0;
#X connect 46 0 47 0;
#X connect 47 0 48 0;
#X connect 49 0 1 0;
#X connect 50 0 10 0;
#X connect 51 0 44 0;
#X connect 54 0 55 0;
#X connect 55 0 53 1;
#X connect 56 0 57 0;
#X connect 57 0 58 0;
#X connect 58 0 59 0;
#X connect 59 0 60 0;
#X connect 61 0 62 0;
#X connect 62 0 63 1;
#X connect 63 0 5 0;
